# xmcd
#
# Track frame offsets: 
#        150
#        36216
#        54528
#        96973
#        120120
#
# Disc length: 2557 seconds
#
# Revision: 1
# Processed by: cddbd v1.5.2PL0 Copyright (c) Steve Scherf et al.
# Submitted via: ExactAudioCopy v0.95a5
#
DISCID=3609fb05
DTITLE=Kark Berger and Dave Holland - All Kinds Of Time
DYEAR=1976
DGENRE=Jazz
TTITLE0=Simplicity
TTITLE1=Perfect Love
TTITLE2=Fragments
TTITLE3=The Beginning
TTITLE4=Now Is -  D'Accord - All Kinds Of Time - We Are
EXTD=YEAR: 1976
EXTT0=
EXTT1=
EXTT2=
EXTT3=
EXTT4=
PLAYORDER=
